<svg width="24" height="24" viewBox="0 0 24 24" fill="none" xmlns="http://www.w3.org/2000/svg">
<g clip-path="url(#clip0_2382_338)">
<path fill-rule="evenodd" clip-rule="evenodd" d="M16 5.5H8C7.33696 5.5 6.70107 5.76339 6.23223 6.23223C5.76339 6.70107 5.5 7.33696 5.5 8V16C5.5 16.663 5.76339 17.2989 6.23223 17.7678C6.70107 18.2366 7.33696 18.5 8 18.5H16C16.663 18.5 17.2989 18.2366 17.7678 17.7678C18.2366 17.2989 18.5 16.663 18.5 16V8C18.5 7.33696 18.2366 6.70107 17.7678 6.23223C17.2989 5.76339 16.663 5.5 16 5.5ZM8 4C6.93913 4 5.92172 4.42143 5.17157 5.17157C4.42143 5.92172 4 6.93913 4 8V16C4 17.0609 4.42143 18.0783 5.17157 18.8284C5.92172 19.5786 6.93913 20 8 20H16C17.0609 20 18.0783 19.5786 18.8284 18.8284C19.5786 18.0783 20 17.0609 20 16V8C20 6.93913 19.5786 5.92172 18.8284 5.17157C18.0783 4.42143 17.0609 4 16 4H8Z" fill="#00A296"/>
<path d="M10 8H16V16H8V8Z" fill="#00A296"/>
</g>
<defs>
<clipPath id="clip0_2382_338">
<rect width="24" height="24" fill="white"/>
</clipPath>
</defs>
</svg>