<svg width="28" height="28" viewBox="0 0 28 28" fill="none" xmlns="http://www.w3.org/2000/svg">
<g clip-path="url(#clip0_2382_629)">
<path d="M17.9432 13.7609C17.9809 13.852 18.0002 13.9496 18.0002 14.0481C18.0003 14.2468 17.9214 14.4375 17.781 14.5782C17.6406 14.7188 17.4501 14.798 17.2514 14.7983H10.7502C10.6517 14.7983 10.5542 14.7789 10.4631 14.7412C10.3721 14.7035 10.2894 14.6483 10.2197 14.5786C10.1501 14.5089 10.0948 14.4262 10.0571 14.3352C10.0194 14.2442 10 14.1466 10 14.0481C10 13.9496 10.0194 13.852 10.0571 13.761C10.0948 13.67 10.1501 13.5873 10.2197 13.5176C10.2894 13.4479 10.3721 13.3927 10.4631 13.355C10.5542 13.3173 10.6517 13.2979 10.7502 13.2979H17.25C17.3485 13.2978 17.4461 13.3172 17.5371 13.3549C17.6281 13.3926 17.7109 13.4478 17.7805 13.5175C17.8502 13.5872 17.9055 13.6699 17.9432 13.7609Z" fill="#00A296"/>
</g>
<rect x="2.5" y="2.5" width="23" height="23" rx="11.5" stroke="#00A296"/>
<defs>
<clipPath id="clip0_2382_629">
<rect x="2" y="2" width="24" height="24" rx="12" fill="white"/>
</clipPath>
</defs>
</svg>
