<svg width="28" height="28" viewBox="0 0 28 28" fill="none" xmlns="http://www.w3.org/2000/svg">
<g clip-path="url(#clip0_2382_635)">
<path d="M18.0007 14C18.0007 13.9015 17.9813 13.8039 17.9436 13.7129C17.906 13.6218 17.8507 13.5391 17.781 13.4694C17.7114 13.3998 17.6286 13.3445 17.5376 13.3068C17.4466 13.2691 17.349 13.2497 17.2505 13.2498H14.7501L14.7501 10.7235C14.7433 10.5293 14.6613 10.3454 14.5215 10.2104C14.3817 10.0754 14.1949 10 14.0006 10C13.8063 10 13.6195 10.0754 13.4797 10.2104C13.3399 10.3454 13.2579 10.5293 13.2511 10.7235L13.2511 13.2498H10.7507C10.6522 13.2498 10.5546 13.2692 10.4636 13.3069C10.3726 13.3446 10.2899 13.3998 10.2202 13.4695C10.1506 13.5392 10.0953 13.6219 10.0576 13.7129C10.0199 13.8039 10.0005 13.9015 10.0005 14C10.0005 14.0985 10.0199 14.1961 10.0576 14.2871C10.0953 14.3781 10.1506 14.4608 10.2202 14.5305C10.2899 14.6002 10.3726 14.6554 10.4636 14.6931C10.5546 14.7308 10.6522 14.7502 10.7507 14.7502H13.2511L13.2511 17.2498C13.2511 17.3483 13.2705 17.4458 13.3082 17.5369C13.3459 17.6279 13.4011 17.7106 13.4708 17.7803C13.5405 17.8499 13.6232 17.9052 13.7142 17.9429C13.8052 17.9806 13.9028 18 14.0013 18C14.0998 18 14.1974 17.9806 14.2884 17.9429C14.3794 17.9052 14.4621 17.8499 14.5318 17.7803C14.6015 17.7106 14.6567 17.6279 14.6944 17.5369C14.7321 17.4458 14.7515 17.3483 14.7515 17.2498L14.7515 14.7502H17.2519C17.4506 14.7499 17.6411 14.6707 17.7815 14.5301C17.9219 14.3894 18.0008 14.1988 18.0007 14Z" fill="#00A296"/>
</g>
<rect x="2.5" y="2.5" width="23" height="23" rx="11.5" stroke="#00A296"/>
<defs>
<clipPath id="clip0_2382_635">
<rect x="2" y="2" width="24" height="24" rx="12" fill="white"/>
</clipPath>
</defs>
</svg>
