<svg width="24" height="24" viewBox="0 0 24 24" fill="none" xmlns="http://www.w3.org/2000/svg">
<g clip-path="url(#clip0_2382_392)">
<path fill-rule="evenodd" clip-rule="evenodd" d="M12 18.5C13.2856 18.5 14.5423 18.1188 15.6112 17.4046C16.6801 16.6903 17.5132 15.6752 18.0052 14.4874C18.4972 13.2997 18.6259 11.9928 18.3751 10.7319C18.1243 9.47104 17.5052 8.31285 16.5962 7.40381C15.6872 6.49477 14.529 5.8757 13.2681 5.6249C12.0072 5.37409 10.7003 5.50282 9.51256 5.99479C8.32484 6.48676 7.30968 7.31988 6.59545 8.3888C5.88122 9.45772 5.5 10.7144 5.5 12C5.5 13.7239 6.18482 15.3772 7.40381 16.5962C8.62279 17.8152 10.2761 18.5 12 18.5ZM12 20C13.5823 20 15.129 19.5308 16.4446 18.6518C17.7602 17.7727 18.7855 16.5233 19.391 15.0615C19.9965 13.5997 20.155 11.9911 19.8463 10.4393C19.5376 8.88743 18.7757 7.46197 17.6569 6.34315C16.538 5.22433 15.1126 4.4624 13.5607 4.15372C12.0089 3.84504 10.4003 4.00347 8.93853 4.60897C7.47672 5.21447 6.22729 6.23985 5.34824 7.55544C4.46919 8.87103 4 10.4178 4 12C4 14.1217 4.84285 16.1566 6.34315 17.6569C7.84344 19.1571 9.87827 20 12 20Z" fill="#A8ADB7"/>
</g>
<defs>
<clipPath id="clip0_2382_392">
<rect width="24" height="24" fill="white"/>
</clipPath>
</defs>
</svg>
