<svg width="36" height="37" viewBox="0 0 36 37" fill="none" xmlns="http://www.w3.org/2000/svg">
<g clip-path="url(#clip0_1201_1640)">
<path d="M15.3335 16.5001C15.5987 16.5001 15.8531 16.6054 16.0406 16.793C16.2281 16.9805 16.3335 17.2349 16.3335 17.5001V22.1667C16.3335 22.432 16.2281 22.6863 16.0406 22.8739C15.8531 23.0614 15.5987 23.1667 15.3335 23.1667C15.0683 23.1667 14.8139 23.0614 14.6264 22.8739C14.4389 22.6863 14.3335 22.432 14.3335 22.1667V17.5001C14.3335 17.2349 14.4389 16.9805 14.6264 16.793C14.8139 16.6054 15.0683 16.5001 15.3335 16.5001Z" fill="#00A296"/>
<path d="M20.6668 16.5001C20.932 16.5001 21.1864 16.6054 21.3739 16.793C21.5615 16.9805 21.6668 17.2349 21.6668 17.5001V22.1667C21.6668 22.432 21.5615 22.6863 21.3739 22.8739C21.1864 23.0614 20.932 23.1667 20.6668 23.1667C20.4016 23.1667 20.1473 23.0614 19.9597 22.8739C19.7722 22.6863 19.6668 22.432 19.6668 22.1667V17.5001C19.6668 17.2349 19.7722 16.9805 19.9597 16.793C20.1473 16.6054 20.4016 16.5001 20.6668 16.5001Z" fill="#00A296"/>
<path fill-rule="evenodd" clip-rule="evenodd" d="M13.3667 7.60586C12.4195 8.32983 11.7395 9.34785 11.4335 10.5001H8.3335C8.06828 10.5001 7.81393 10.6055 7.62639 10.793C7.43885 10.9805 7.3335 11.2349 7.3335 11.5001C7.3335 11.7653 7.43885 12.0197 7.62639 12.2072C7.81393 12.3947 8.06828 12.5001 8.3335 12.5001H9.3335V24.1668C9.3335 25.4928 9.86028 26.7646 10.798 27.7023C11.7356 28.64 13.0074 29.1668 14.3335 29.1668H21.6668C22.3234 29.1668 22.9736 29.0374 23.5802 28.7862C24.1869 28.5349 24.7381 28.1666 25.2024 27.7023C25.6667 27.238 26.035 26.6868 26.2862 26.0802C26.5375 25.4736 26.6668 24.8234 26.6668 24.1668V12.5001H27.6668C27.932 12.5001 28.1864 12.3947 28.3739 12.2072C28.5615 12.0197 28.6668 11.7653 28.6668 11.5001C28.6668 11.2349 28.5615 10.9805 28.3739 10.793C28.1864 10.6055 27.932 10.5001 27.6668 10.5001H24.2335C24.0027 9.37085 23.389 8.35596 22.4962 7.62709C21.6033 6.89822 20.4861 6.50011 19.3335 6.5001H16.6668C15.4747 6.49295 14.3139 6.88188 13.3667 7.60586ZM14.932 9.04944C14.4246 9.40766 14.0407 9.91451 13.8335 10.5001H22.1628C21.9558 9.91516 21.5726 9.40876 21.0659 9.05059C20.5592 8.69243 19.954 8.5001 19.3335 8.5001H16.6668C16.0457 8.49928 15.4395 8.69121 14.932 9.04944ZM24.6668 12.5001H11.3335V24.1668C11.3335 24.9624 11.6496 25.7255 12.2122 26.2881C12.7748 26.8507 13.5378 27.1668 14.3335 27.1668H21.6668C22.4625 27.1668 23.2255 26.8507 23.7881 26.2881C24.3508 25.7255 24.6668 24.9624 24.6668 24.1668V12.5001Z" fill="#00A296"/>
</g>
<defs>
<clipPath id="clip0_1201_1640">
<rect x="2" y="2.5" width="32" height="32" rx="16" fill="white"/>
</clipPath>
</defs>
</svg>
